<svg width="56" height="49" viewBox="0 0 56 49" fill="none" xmlns="http://www.w3.org/2000/svg">
<path d="M55.9234 40.7312L48.475 27.8359C48.3219 27.5734 47.9828 27.475 47.7203 27.6281C47.4578 27.7812 47.3594 28.1203 47.5125 28.3828L54.8078 41.0047L52.5547 44.8984L44.1437 30.3297C43.9906 30.0672 43.6516 29.9687 43.3891 30.1219C43.1266 30.275 43.0281 30.6141 43.1812 30.8766L48.7047 40.4359H41.0922V38.85C41.0922 38.6422 40.9719 38.4562 40.7969 38.3578C40.6109 38.2594 40.3922 38.2812 40.2281 38.3906L33.5234 43.0828C33.3703 43.1922 33.2828 43.3562 33.2828 43.5422C33.2828 43.7281 33.3703 43.8922 33.5234 44.0016L40.2391 48.6391C40.3375 48.7047 40.4469 48.7375 40.5562 48.7375C40.6437 48.7375 40.7312 48.7156 40.8187 48.6719C41.0047 48.5734 41.1141 48.3875 41.1141 48.1797V46.5609H52.5C52.7078 46.5828 52.9266 46.4734 53.0359 46.2875L55.9234 41.2781C56.0219 41.1141 56.0219 40.9062 55.9234 40.7312ZM40.5562 45.4562C40.4141 45.4562 40.2719 45.5109 40.1625 45.6203C40.0531 45.7297 39.9984 45.8609 39.9984 46.0141V47.1297L34.8141 43.5422L39.9766 39.9328V41.0156C39.9766 41.3219 40.2281 41.5734 40.5344 41.5734H49.3391L51.5922 45.4672H40.5562V45.4562ZM16.7891 14.9406C17.0516 15.0938 17.3906 15.0062 17.5437 14.7328L25.4078 1.12656H29.9359L20.9453 16.6906C20.7922 16.9531 20.8797 17.2922 21.1531 17.4453C21.4156 17.5984 21.7547 17.5109 21.9078 17.2375L27.9891 6.70469L31.7844 13.2781L30.4172 14.0656C30.2422 14.1641 30.1328 14.3609 30.1437 14.5687C30.1547 14.7766 30.275 14.9625 30.4609 15.05L37.8437 18.5281C37.9203 18.5609 37.9969 18.5828 38.0844 18.5828C38.1828 18.5828 38.2812 18.5609 38.3578 18.5062C38.5109 18.4187 38.6203 18.2547 38.6312 18.0687L39.3094 9.98594C39.3203 9.90937 39.3203 9.82187 39.2984 9.74531C39.2328 9.50469 39.0141 9.32969 38.7625 9.32969C38.6531 9.32969 38.5437 9.3625 38.4562 9.41719L37.1109 10.1937L31.4016 0.30625C31.4016 0.295312 31.3906 0.284375 31.3906 0.273437C31.2922 0.0984375 31.1062 0 30.9094 0H25.1016C24.9047 0 24.7187 0.109375 24.6203 0.273437L16.6031 14.1531C16.4391 14.4484 16.5266 14.7875 16.7891 14.9406ZM30.8984 1.68437L36.4219 11.2547C36.575 11.5172 36.9141 11.6156 37.1766 11.4625L38.1062 10.9266L37.5812 17.2047L31.8828 14.5141L32.8125 13.9781C33.075 13.825 33.1734 13.4859 33.0203 13.2234L28.6344 5.62187L30.8984 1.68437ZM18.8891 41.0594C18.8891 40.7531 18.6375 40.5016 18.3312 40.5016H7.29531L11.1016 33.9172L12.4797 34.7047C12.6547 34.8031 12.8844 34.8031 13.0484 34.6937C13.2234 34.5844 13.3219 34.3875 13.3 34.1797L12.6 26.0422C12.5891 25.8562 12.4797 25.7031 12.3266 25.6047C12.1734 25.5172 11.9766 25.5062 11.8125 25.5828L4.44062 29.0828C4.25469 29.1703 4.13437 29.3562 4.12344 29.5641C4.1125 29.7719 4.22187 29.9687 4.39687 30.0672L5.79687 30.8766L0.0765625 40.7859C0.0328125 40.8734 0 40.9609 0 41.0594C0 41.1469 0.021875 41.2234 0.0546875 41.3C0.0546875 41.3109 0.065625 41.3219 0.065625 41.3328L2.95312 46.3422C3.05156 46.5172 3.2375 46.6156 3.43437 46.6156H18.3312C18.6375 46.6156 18.8891 46.3641 18.8891 46.0578C18.8891 45.7516 18.6375 45.5 18.3312 45.5H3.7625L1.50937 41.6062H18.3312C18.6375 41.6172 18.8891 41.3656 18.8891 41.0594ZM1.50937 40.5125L7.03281 30.9531C7.10938 30.8219 7.13125 30.6687 7.0875 30.5266C7.05469 30.3844 6.95625 30.2641 6.825 30.1875L5.8625 29.6297L11.5609 26.9281L12.0969 33.2062L11.1562 32.6703C10.8937 32.5172 10.5547 32.6047 10.4016 32.8781L6.01562 40.5125H1.50937ZM37.4719 34.0484C37.4937 34.0156 37.5047 33.9719 37.5266 33.9391C38.0953 32.6484 38.4234 31.2266 38.4234 29.7281C38.4234 28.2187 38.1062 26.7859 37.5266 25.4953C37.5156 25.4734 37.5047 25.4406 37.4937 25.4187C35.8531 21.8203 32.2219 19.3047 28.0109 19.3047C23.8 19.3047 20.1687 21.8203 18.5281 25.4187L18.4953 25.4844C17.9156 26.775 17.5984 28.2078 17.5984 29.7172C17.5984 31.2156 17.9156 32.6484 18.4953 33.9391C18.5062 33.9719 18.5281 34.0156 18.5391 34.0484C20.1797 37.6359 23.8109 40.1406 28.0109 40.1406C32.2 40.1406 35.8312 37.6359 37.4719 34.0484ZM37.3078 29.7281C37.3078 30.9641 37.0672 32.1453 36.6297 33.2172H32.3422C32.5062 32.1344 32.5937 30.9531 32.5937 29.7281C32.5937 28.5031 32.5062 27.3328 32.3422 26.2391H36.6297C37.0672 27.3109 37.3078 28.4922 37.3078 29.7281ZM36.0937 25.1234H32.1453C31.7516 23.2641 31.1281 21.7328 30.3406 20.7047C32.8016 21.35 34.8578 22.9687 36.0937 25.1234ZM31.4891 29.7281C31.4891 30.9859 31.3906 32.1562 31.2266 33.2172H24.7844C24.6203 32.1562 24.5219 30.9859 24.5219 29.7281C24.5219 28.4703 24.6203 27.3 24.7844 26.2391H31.2266C31.3906 27.2891 31.4891 28.4703 31.4891 29.7281ZM28 20.4203C29.1375 20.4203 30.3516 22.225 31.0078 25.1344H24.9922C25.6375 22.225 26.8625 20.4203 28 20.4203ZM25.6594 20.7156C24.8828 21.7437 24.2484 23.275 23.8547 25.1344H19.9062C21.1312 22.9687 23.1984 21.35 25.6594 20.7156ZM18.6922 29.7281C18.6922 28.4922 18.9328 27.3219 19.3703 26.2391H23.6578C23.4937 27.3219 23.4062 28.4922 23.4062 29.7281C23.4062 30.9531 23.4937 32.1344 23.6578 33.2172H19.3703C18.9328 32.1344 18.6922 30.9531 18.6922 29.7281ZM19.9062 34.3219H23.8547C24.2484 36.1703 24.8719 37.7016 25.6594 38.7297C23.1984 38.0953 21.1422 36.4766 19.9062 34.3219ZM28 39.0359C26.8625 39.0359 25.6484 37.2312 24.9922 34.3328H31.0078C30.3516 37.2312 29.1375 39.0359 28 39.0359ZM30.3406 38.7297C31.1172 37.7016 31.7516 36.1703 32.1453 34.3219H36.0937C34.8578 36.4766 32.7906 38.0953 30.3406 38.7297Z" fill="#002FA7"/>
</svg>
